<svg width="1291" height="370" viewBox="0 0 1291 370" fill="none" xmlns="http://www.w3.org/2000/svg">
<g clip-path="url(#clip0_65_33)">
<g clip-path="url(#clip1_65_33)">
<path fill-rule="evenodd" clip-rule="evenodd" d="M279.176 239.783C277.578 236.103 278.279 231.797 278.279 227.683C278.279 202.902 278.506 176.911 278.502 151.065C278.502 147.057 279.202 142.746 277.604 139.189C275.066 139.114 272.741 140.766 270.666 141.879C255.862 149.808 241.01 158.81 226.118 167.195C213.388 174.357 200.816 181.493 188.061 188.923C183.972 191.306 179.455 193.404 176.198 196.988C175.524 229.712 175.752 265.901 175.752 300.719C175.752 305.52 175.06 310.47 176.649 314.833C180.12 314.925 182.624 312.121 185.382 310.575C199.433 302.69 213.515 294.581 227.694 286.38C252.535 272.012 278.195 257.209 303.361 242.692C306.167 241.071 308.767 238.788 312.094 238.21C313.271 241.102 312.764 244.659 312.764 248.067C312.764 257.976 313.127 269.607 312.317 278.986C310.172 281.995 306.123 283.095 303.138 285.259C279.929 298.721 255.201 313.506 229.93 327.603C208.669 339.466 187.225 352.253 165.907 364.572C163.075 366.206 158.689 369.531 156.058 369.5C154.11 369.478 151.409 367.012 149.12 365.689C133.002 356.406 117.484 346.988 101.883 337.683C86.4662 328.492 70.7909 319.205 54.8703 309.454C52.8742 308.231 49.5912 306.286 49.0484 304.749C48.1992 302.339 48.8252 297.928 48.8252 294.445C48.8252 286.941 48.6019 280.707 48.6019 273.611C48.6019 270.233 48.2517 266.711 49.7225 264.201C54.008 265.108 57.5887 267.951 61.1387 270.251C71.6532 277.054 82.925 283.244 93.8246 289.74C104.685 296.215 115.506 302.707 126.51 309.23C130.104 311.359 133.344 314.592 137.703 315.28C139.463 313.677 139.012 310.921 139.047 308.783C139.476 280.519 139.06 254.585 139.271 226.111C139.297 222.208 139.03 216.631 139.271 211.321C139.481 206.674 140.347 199.923 139.271 196.537C138.421 193.856 133.392 191.569 130.538 189.812C107.863 175.847 85.0261 163.252 62.9291 149.264C58.7181 146.461 54.2619 144.205 49.9458 141.646C45.7347 139.149 41.6944 136.017 36.7392 134.475C35.089 137.283 35.89 140.814 35.8419 143.885C35.1152 190.964 35.3823 240.427 35.3823 286.832C35.3823 289.868 36.087 293.254 34.4849 296.018C31.0311 296.084 28.3215 293.468 25.5332 291.76C22.7141 290.034 19.5668 288.575 16.8003 286.832C11.1797 283.283 5.3228 280.081 0.23191 276.077C0.23191 275.928 0.23191 275.779 0.23191 275.626C-0.131412 213.643 -0.144544 152.296 0.68278 91.2419C3.80385 87.3519 9.12236 85.2535 13.6661 82.7302C31.5433 72.7992 49.8363 62.119 68.0637 52.039C81.3578 44.6882 94.3718 35.423 108.808 28.9614C112.507 29.5178 115.199 31.9885 117.988 33.6663C120.903 35.423 123.972 36.7503 126.721 38.818C130.792 41.5516 135.221 43.501 139.704 46.6595C140.899 47.505 143.018 48.8586 143.061 50.0195C143.153 52.499 135.379 55.6706 132.766 56.9629C113.317 66.5873 96.2891 77.3244 77.9172 88.1053C72.8307 91.093 67.3152 94.1989 61.5765 97.5151C59.8255 98.5271 56.9102 99.9858 56.8752 101.322C56.8314 102.895 60.8892 105.037 62.4738 106.027C76.8885 115.034 92.6296 124.378 106.799 132.911C119.621 140.63 131.741 148.156 145.079 155.761C146.909 156.804 149.321 158.122 151.571 159.572C153.703 160.939 156.281 163.331 158.509 163.156C160.549 162.994 163.254 161.167 165.447 160.019C171.921 156.628 177.984 152.493 184.029 149.041C207.002 135.925 229.799 122.7 253.205 109.163C254.601 108.357 258.76 106.447 258.804 104.905C258.856 103.122 254.094 100.814 252.084 99.5259C244.695 94.7947 237.096 90.2212 229.922 85.8581C199.858 67.5774 171.155 49.9713 141.275 31.2C136.224 27.2223 129.229 25.1809 125.158 20.2263C126.839 17.5234 130.104 16.3801 132.77 14.8512C140.851 10.212 149.343 5.3582 157.621 0.73656C161.074 -0.533845 165.5 3.68477 169.037 5.66485C179.175 11.3466 187.829 17.2781 197.691 23.3629C210.797 31.4497 224.091 38.8881 236.194 46.8873C248.937 55.307 262.332 62.43 274.925 70.1883C284.621 76.1636 294.212 81.8935 303.803 87.8863C306.889 89.8138 310.343 91.5924 312.759 94.3829C313.293 136.709 312.825 179.058 312.536 220.517C311.008 223.53 307.419 224.494 304.7 226.119C299.237 229.392 293.687 232.432 287.913 235.753C285.19 237.312 282.411 239.564 279.176 239.783Z" fill="#4A7B44"/>
</g>
<path d="M337.383 284V99.337H486.346C492.852 99.337 498.845 100.964 504.324 104.217C509.803 107.47 514.169 111.836 517.423 117.315C520.676 122.623 522.303 128.53 522.303 135.037V184.862C522.303 191.369 520.676 197.362 517.423 202.841C514.169 208.32 509.803 212.686 504.324 215.939C498.845 219.021 492.852 220.562 486.346 220.562L371.285 220.819V284H337.383ZM374.367 186.403H484.805C485.661 186.403 486.431 186.147 487.116 185.633C487.801 185.119 488.144 184.434 488.144 183.578V136.321C488.144 135.465 487.801 134.78 487.116 134.266C486.431 133.581 485.661 133.239 484.805 133.239H374.367C373.511 133.239 372.74 133.581 372.055 134.266C371.541 134.78 371.285 135.465 371.285 136.321V183.578C371.285 184.434 371.541 185.119 372.055 185.633C372.74 186.147 373.511 186.403 374.367 186.403ZM574.957 284C568.451 284 562.458 282.373 556.979 279.12C551.671 275.867 547.391 271.586 544.137 266.279C541.055 260.971 539.514 255.063 539.514 248.557V192.567H657.144V171.764C657.144 170.908 656.801 170.223 656.117 169.709C655.603 169.024 654.918 168.682 654.062 168.682H539.514V135.037H655.346C661.853 135.037 667.76 136.663 673.068 139.917C678.547 143.17 682.827 147.45 685.909 152.758C689.162 158.066 690.789 163.973 690.789 170.48V284H574.957ZM576.241 250.355H657.144V222.874H573.159V247.273C573.159 248.129 573.416 248.899 573.93 249.584C574.615 250.098 575.385 250.355 576.241 250.355ZM711.536 284V275.011L766.242 208.234L711.536 144.026V135.037H748.007L788.073 182.294L828.139 135.037H864.609V144.026L809.903 208.234L864.609 275.011V284H828.395L788.073 234.688L748.007 284H711.536Z" fill="#4A7B44"/>
<path d="M890.904 284V135.037H924.549V284H890.904ZM890.904 120.14V86.2385H924.549V120.14H890.904ZM983.777 284C977.271 284 971.364 282.373 966.056 279.12C960.748 275.867 956.468 271.586 953.214 266.279C949.961 260.971 948.335 255.063 948.335 248.557V170.48C948.335 163.973 949.961 158.066 953.214 152.758C956.468 147.45 960.748 143.17 966.056 139.917C971.364 136.663 977.271 135.037 983.777 135.037H1099.35V168.682H985.062C984.206 168.682 983.435 169.024 982.75 169.709C982.236 170.223 981.98 170.908 981.98 171.764V247.273C981.98 248.129 982.236 248.899 982.75 249.584C983.435 250.098 984.206 250.355 985.062 250.355H1099.61V284H983.777ZM1160.86 284C1154.35 284 1148.36 282.373 1142.88 279.12C1137.57 275.867 1133.29 271.586 1130.04 266.279C1126.96 260.971 1125.41 255.063 1125.41 248.557V192.567H1243.04V171.764C1243.04 170.908 1242.7 170.223 1242.02 169.709C1241.5 169.024 1240.82 168.682 1239.96 168.682H1125.41V135.037H1241.25C1247.75 135.037 1253.66 136.663 1258.97 139.917C1264.45 143.17 1268.73 147.45 1271.81 152.758C1275.06 158.066 1276.69 163.973 1276.69 170.48V284H1160.86ZM1162.14 250.355H1243.04V222.874H1159.06V247.273C1159.06 248.129 1159.32 248.899 1159.83 249.584C1160.52 250.098 1161.29 250.355 1162.14 250.355Z" fill="black"/>
</g>
<defs>
<clipPath id="clip0_65_33">
<rect width="1291" height="369" fill="white" transform="translate(0 0.5)"/>
</clipPath>
<clipPath id="clip1_65_33">
<rect width="313" height="369" fill="white" transform="translate(0 0.5)"/>
</clipPath>
</defs>
</svg>
